<svg width="84" height="83" viewBox="0 0 84 83" fill="none" xmlns="http://www.w3.org/2000/svg">
<path fill-rule="evenodd" clip-rule="evenodd" d="M35.68 0.310907C41.3808 -0.384094 47.1494 0.0950517 52.6097 1.65856C52.6855 1.98386 52.7615 2.30981 52.8197 2.63415C53.7427 3.4116 54.2113 1.93918 55.1927 3.04138C55.3584 2.86485 55.4238 2.72079 55.4525 2.59216C62.2103 5.04115 68.3938 9.14673 73.2845 14.7035C72.7784 14.8562 72.2271 14.9919 72.7406 15.597C72.8458 15.3674 73.2372 15.194 73.5677 15.0306C75.7296 17.5331 77.5951 20.2769 79.1273 23.2074C81.9504 28.6148 83.4694 34.3136 83.8275 39.9593H83.8119C84.6378 51.7652 80.2716 63.3594 71.7338 71.5961C71.704 71.5062 71.6561 71.4156 71.5853 71.3021C71.2087 71.7655 70.697 71.5973 70.3168 72.0043C70.6426 72.1472 70.6605 72.384 70.6097 72.6449C67.8951 75.0639 64.8048 77.1575 61.3549 78.8343C57.3644 80.7708 53.1974 82.0062 48.9838 82.597C49.5896 81.4851 49.8761 80.4695 49.3099 79.7338C48.1169 80.2891 48.0718 81.6257 48.2308 82.6888C42.5303 83.3838 36.7623 82.9046 31.3021 81.3412C31.2263 81.0159 31.1503 80.6909 31.0922 80.3666C30.1689 79.5884 29.6997 81.0617 28.7181 79.9593C28.5526 80.1358 28.488 80.28 28.4593 80.4086C21.7015 77.9596 15.5182 73.854 10.6273 68.2972C11.1334 68.1446 11.6837 68.0087 11.1703 67.4037C11.0648 67.6333 10.6735 67.8067 10.3431 67.9701C8.18131 65.4677 6.3158 62.7238 4.78357 59.7933C1.96053 54.3859 0.441441 48.6872 0.0833703 43.0414L0.0989953 43.0404C-0.72672 31.2347 3.64026 19.6411 12.1781 11.4047C12.2079 11.4944 12.2549 11.5852 12.3256 11.6986C12.7021 11.235 13.2139 11.4032 13.5941 10.9965C13.2682 10.8534 13.2503 10.6159 13.3011 10.3549C16.0157 7.93586 19.1061 5.8432 22.556 4.16638C26.5464 2.22991 30.7135 0.994532 34.9271 0.40368C34.3214 1.5155 34.0359 2.53035 34.6019 3.26598C35.7946 2.71049 35.8391 1.37398 35.68 0.310907ZM42.8724 80.3666C42.3283 80.9786 41.6297 80.8664 41.1547 81.7992C41.8203 82.5196 43.4377 81.0562 42.8724 80.3666ZM46.4925 78.598C45.759 77.8391 45.4373 78.9788 44.89 79.1078C45.6199 79.874 45.9484 78.738 46.4925 78.598ZM30.0804 76.8597C29.8801 77.6155 29.3683 78.472 29.6859 79.055C30.4863 78.8175 31.0945 77.3543 30.0804 76.8597ZM46.9857 75.4779C47.5184 75.8307 47.9961 75.6798 48.3842 75.3226C47.9266 75.0766 47.7667 74.7393 47.6107 74.3949L46.9857 75.4779ZM21.4369 68.4818C20.8487 69.3588 21.6555 69.7886 21.5677 70.4916C22.1561 69.6144 21.7263 69.0667 21.4369 68.4818ZM34.1351 67.5863C33.7859 68.2382 33.4179 68.6708 32.9769 68.8519C33.9348 69.7588 35.0496 68.2055 34.1351 67.5863ZM27.1185 66.9222C26.7649 67.4714 26.122 66.7283 25.8353 67.6341C26.3293 68.3369 27.8472 67.5338 27.1185 66.9222ZM63.4359 66.5873C62.8783 65.4754 61.6357 67.6271 62.2748 67.8422C62.6052 67.2068 63.003 66.7549 63.4359 66.5873ZM48.6595 65.7933C48.4231 65.9661 47.0348 66.7345 47.8177 67.2504C48.4707 66.7649 49.575 66.7576 48.6595 65.7933ZM56.7465 66.1127C57.1572 66.3772 56.9324 66.8463 57.5238 67.0336L58.1449 65.9574C57.8245 65.7724 57.4907 65.5798 57.1674 65.3841L56.7465 66.1127ZM60.1771 64.7064C59.606 65.4752 59.4653 66.1115 59.9974 66.5277C60.8261 66.2889 61.2975 65.1266 60.1771 64.7064ZM38.6078 64.3568C38.215 65.6827 37.4548 65.19 36.9105 65.8021C37.7277 67.2356 39.1583 64.8834 38.6078 64.3568ZM55.4232 63.8861C55.166 64.7092 53.1504 63.6825 53.931 64.9593C54.5517 64.0737 54.1958 65.7932 55.2338 65.7113C55.5792 65.0029 55.7178 64.3831 55.4232 63.8861ZM63.723 63.8382C63.347 63.1675 63.048 65.2279 63.4213 65.1166C63.8773 64.9711 63.7802 63.9437 63.723 63.8382ZM28.9769 62.1927C28.7167 62.7689 28.0822 63.4745 28.473 63.8363C29.035 62.926 30.0507 64.0476 30.6058 63.1332L28.9769 62.1927ZM45.2533 61.9007C45.1177 62.104 44.9545 62.2912 44.7279 62.0697L44.3031 62.806C44.7812 63.835 45.9769 62.1107 45.2533 61.9007ZM35.5365 60.641C34.8639 60.1527 34.317 60.3273 33.9252 61.1634C34.6056 61.638 35.128 61.4583 35.5365 60.641ZM55.555 59.1234C54.8364 57.991 52.7848 60.3011 54.1918 60.7601C54.8624 61.2198 55.0755 59.546 55.555 59.1234ZM15.8568 57.0336C14.8965 56.4618 13.2102 59.3828 14.1781 59.9418C15.0079 59.6851 17.1423 58.6651 16.724 57.0433L16.2347 57.4965L15.8568 57.0336ZM51.6566 58.3343C51.4648 58.2418 51.2586 58.1588 51.139 58.5072C51.8774 60.141 49.9098 58.1334 50.7142 59.2425C50.5992 59.4577 50.5048 59.6844 50.8197 59.7845C51.3034 59.3558 51.8387 59.1384 52.3119 58.7123L51.6566 58.3343ZM41.8509 57.9847C41.8708 59.3036 40.0108 57.8663 40.891 58.892C41.4814 58.4527 42.4454 59.8986 42.8256 58.5472L41.8509 57.9847ZM8.84802 56.3734C8.48078 56.915 7.83112 56.1679 7.55114 57.0775C8.03864 57.7763 9.56287 56.977 8.84802 56.3734ZM60.3373 54.6195C59.1481 53.9873 58.3337 55.0517 57.5687 56.4076C58.291 57.66 59.1021 57.0112 60.1478 56.4437C58.9677 55.7168 59.632 55.4471 60.3373 54.6195ZM3.98669 56.4818C3.87837 56.7005 3.79305 56.9423 4.11169 57.0355C4.49341 56.5478 5.00461 56.7334 5.39294 56.3129L4.4115 55.7465L3.98669 56.4818ZM64.3324 54.5013C64.0524 55.0024 63.7225 55.2123 63.3724 55.4095C63.8078 56.6232 65.1653 57.2156 65.2142 55.9818C65.0775 56.2026 64.9143 56.3901 64.6674 56.1566C64.5741 55.6014 64.4627 55.0491 64.3324 54.5013ZM25.1781 53.6888C23.8745 53.9169 24.3392 56.1188 25.4125 54.7953C24.9761 54.5434 25.4884 53.9861 25.1781 53.6888ZM9.974 53.6371C9.59151 54.079 9.11581 54.0677 8.80896 54.8978C9.39129 56.0148 10.6277 53.8427 9.974 53.6371ZM58.3871 53.4935C57.4496 52.7258 56.9308 53.8603 56.2347 54.1849C57.1588 54.9452 57.867 54.7093 58.3871 53.4935ZM64.6019 51.7513C63.4891 52.7342 64.5592 54.4867 65.0629 53.9603C64.5463 53.1083 66.3289 52.8215 65.4652 51.7689C65.2249 52.0116 64.9659 52.034 64.6019 51.7513ZM7.59607 53.2357C7.08081 53.0105 6.47158 52.4139 6.08239 52.8519C6.17565 53.2417 7.1541 54.6781 7.59607 53.2357ZM74.4261 52.1019C73.696 51.3353 73.3523 52.4816 72.8109 52.6322C73.5276 53.3274 74.0664 53.1655 74.4261 52.1019ZM60.4828 49.8636C60.0847 49.9705 58.5821 51.4725 59.2211 52.0502C60.0113 51.2171 61.2867 52.7704 62.016 51.7113C61.8734 50.9665 60.5972 50.6105 60.4828 49.8636ZM17.2582 50.0882C17.1254 50.7109 15.7814 51.75 16.5287 52.0912C17.0869 51.1243 18.0179 51.9065 18.5677 50.8441L17.2582 50.0882ZM81.931 49.6341C80.8518 50.5275 81.6666 52.2505 82.601 51.4828C81.6751 51.1027 83.1579 49.9339 81.931 49.6341ZM64.6439 47.9164C64.3816 48.4183 64.0379 48.6203 63.6957 48.8041C64.2893 49.3015 63.7623 50.1679 64.3715 50.6556C64.5869 49.6995 65.3207 48.5702 64.6439 47.9164ZM7.89489 50.4838C8.41819 49.6872 8.00214 47.7316 7.41247 48.2806C8.03633 48.6956 7.1937 51.0687 7.89489 50.4838ZM41.9203 48.8265C41.5349 49.7296 40.7479 48.6854 40.306 49.3558C40.264 50.8299 42.56 49.6864 41.9203 48.8265ZM47.3031 48.556C47.1608 48.755 47.0187 48.9549 46.7718 48.722L46.347 49.4574C46.8252 50.4865 48.0207 48.7613 47.3031 48.556ZM44.0345 46.6605C43.65 47.1834 41.8125 47.6294 42.4672 48.6517C42.8531 48.0937 44.6454 47.4128 44.0345 46.6605ZM11.0668 47.9662C11.9783 46.7493 10.2439 44.7307 9.20642 45.9291C9.70187 47.2593 11.0491 46.485 11.0668 47.9662ZM17.5238 47.3451C18.2615 46.6813 18.5705 44.6983 17.7181 45.5131C18.4225 46.3557 16.2986 46.4924 17.5238 47.3451ZM62.8304 42.0209C62.5803 42.7844 61.1251 43.9512 62.4349 44.2172C63.0094 43.3322 63.5103 42.4955 62.8304 42.0209ZM71.2709 43.9789C70.3143 43.463 70.2807 41.3644 68.9867 42.6605C70.0036 43.2295 69.96 44.2026 71.2709 43.9789ZM68.9584 41.182C68.1299 40.8853 67.3373 40.7637 66.6967 41.3382C67.3117 41.8303 66.2174 42.8768 66.8451 43.348C67.7336 43.2885 69.1064 42.012 68.9584 41.182ZM23.3851 42.2465C23.2783 42.212 23.1653 42.2198 23.0717 42.2562L21.4623 42.3158C21.1912 42.5075 21.0395 42.6705 21.43 42.8168C22.1547 42.1912 23.2794 43.4848 24.0189 42.85C23.9357 42.7126 23.7529 42.4827 23.5355 42.2406L23.3851 42.2465ZM20.472 42.0814C19.9045 41.6673 19.4289 41.7689 19.057 42.3226L20.3402 42.2738C20.3786 42.206 20.4215 42.1408 20.472 42.0814ZM17.0668 39.6517C16.1783 39.7108 14.8044 40.9885 14.9525 41.8187C15.781 42.1154 16.5745 42.2371 17.2152 41.6625C16.5993 41.1706 17.6946 40.1231 17.0668 39.6517ZM63.5697 40.7259C63.5312 40.7938 63.4895 40.8598 63.4388 40.9193C64.0064 41.3334 64.481 41.2307 64.8529 40.6771L63.5697 40.7259ZM21.4759 38.7836C20.9014 39.6686 20.401 40.5053 21.0814 40.9799C21.3315 40.2163 22.7858 39.0495 21.4759 38.7836ZM62.4818 40.184C61.757 40.8097 60.6315 39.5154 59.892 40.1507C59.975 40.2878 60.1576 40.5166 60.3744 40.7582L60.5258 40.7533C60.6328 40.7879 60.7464 40.781 60.8402 40.7445L62.4476 40.684C62.719 40.4921 62.8725 40.3303 62.4818 40.184ZM14.9242 40.3402C13.9073 39.7713 13.9509 38.7981 12.64 39.0218C13.5966 39.5378 13.6302 41.6363 14.9242 40.3402ZM66.3871 35.6556C65.6493 36.3194 65.3401 38.3019 66.1927 37.4867C65.4894 36.6444 67.6122 36.5083 66.3871 35.6556ZM72.8451 35.0345C71.9335 36.2515 73.668 38.2704 74.7054 37.0716C74.21 35.7414 72.8627 36.5157 72.8451 35.0345ZM41.4437 34.349C41.0574 34.9069 39.2656 35.588 39.8763 36.3402C40.2604 35.8172 42.0985 35.3715 41.4437 34.349ZM19.5404 32.3451C19.3249 33.3012 18.5911 34.4295 19.2679 35.0834C19.5303 34.5817 19.874 34.3804 20.2162 34.1966C19.622 33.6994 20.149 32.833 19.5404 32.3451ZM76.4984 34.7201C75.8747 34.305 76.7181 31.932 76.017 32.517C75.4937 33.3133 75.9089 35.2682 76.4984 34.7201ZM37.5638 33.5433C37.0857 32.514 35.8905 34.2383 36.6078 34.4437C36.75 34.2448 36.8923 34.0459 37.139 34.2787L37.5638 33.5433ZM43.6049 33.6439C43.6465 32.1705 41.351 33.3144 41.9906 34.1742C42.376 33.2706 43.1629 34.3148 43.6049 33.6439ZM1.97985 33.3656C3.05864 32.4723 2.24502 30.7501 1.31091 31.517C2.23653 31.8971 0.752999 33.0658 1.97985 33.3656ZM24.6898 30.9506C23.8996 31.7832 22.6241 30.2304 21.8949 31.2894C22.0377 32.034 23.3134 32.3895 23.4281 33.1361C23.8261 33.0295 25.3288 31.5282 24.6898 30.9506ZM67.3822 30.9095C66.824 31.8762 65.8939 31.0943 65.3441 32.1566L66.6527 32.9125C66.7851 32.2898 68.1299 31.2508 67.3822 30.9095ZM19.309 31.2484C20.4215 30.2657 19.3529 28.5143 18.849 29.0394C19.3658 29.8916 17.5821 30.1788 18.4467 31.2318C18.6868 30.9894 18.9453 30.9662 19.309 31.2484ZM11.1 30.3685C10.3834 29.6735 9.84543 29.8346 9.48571 30.8978C10.2158 31.6643 10.5587 30.5194 11.1 30.3685ZM77.8295 30.1488C77.7365 29.7593 76.7568 28.3223 76.3148 29.765C76.8301 29.9902 77.4402 30.5869 77.8295 30.1488ZM27.6771 28.8158C26.753 28.0553 26.0439 28.2905 25.5238 29.5062C26.4617 30.2747 26.9808 29.1403 27.6771 28.8158ZM75.1019 28.1019C74.5196 26.9857 73.2837 29.1577 73.9369 29.3636C74.3195 28.9215 74.795 28.9325 75.1019 28.1019ZM58.7328 29.3119C60.0368 29.0841 59.5728 26.8818 58.4994 28.2054C58.9347 28.4575 58.4227 29.0148 58.7328 29.3119ZM26.3422 26.5922C25.62 25.3405 24.8094 25.9886 23.764 26.556C24.9441 27.283 24.2789 27.5537 23.5736 28.3812C24.7629 29.0136 25.5771 27.9483 26.3422 26.5922ZM20.5394 27.5912C20.1042 26.3774 18.7469 25.7847 18.6976 27.0179C18.8342 26.7974 18.9969 26.6101 19.2435 26.8431C19.3368 27.3984 19.4492 27.9506 19.5795 28.4984C19.8595 27.9977 20.1895 27.7884 20.5394 27.5912ZM79.7992 25.9652C79.4175 26.4528 78.9072 26.2675 78.5189 26.6879L79.5004 27.2543L79.9252 26.5189C80.0335 26.3002 80.118 26.0584 79.7992 25.9652ZM76.3607 25.9232C75.8734 25.2243 74.3487 26.0228 75.0629 26.6263C75.4301 26.0852 76.0808 26.8326 76.3607 25.9232ZM69.7328 23.059C68.903 23.3156 66.7691 24.335 67.1869 25.9564L67.6761 25.5033L68.0541 25.9672C69.0144 26.5391 70.7008 23.6179 69.7328 23.059ZM43.0209 24.1088C42.4305 24.5487 41.4655 23.1019 41.0853 24.4535L42.0599 25.016C42.0398 23.6968 43.9005 25.1338 43.0209 24.1088ZM33.0912 23.2162C32.6076 23.6446 32.073 23.8626 31.6 24.2884L32.2543 24.6664C32.4461 24.759 32.6532 24.842 32.7728 24.4935C32.0344 22.8597 34.001 24.8672 33.1967 23.7582C33.3116 23.543 33.4061 23.3163 33.0912 23.2162ZM29.7191 22.2396C29.0484 21.7802 28.8356 23.4552 28.3558 23.8773C29.0746 25.0097 31.1268 22.6983 29.7191 22.2396ZM49.9857 21.8373C49.3053 21.3628 48.7838 21.5425 48.3754 22.3597C49.0479 22.8478 49.5939 22.6733 49.9857 21.8373ZM39.6078 20.1947C39.1296 19.1653 37.9342 20.8905 38.6586 21.1C38.7941 20.8968 38.9565 20.709 39.183 20.93L39.6078 20.1947ZM55.4379 19.1644C54.876 20.0746 53.8602 18.9528 53.305 19.8666L54.934 20.808C55.1941 20.2318 55.8287 19.5263 55.4379 19.1644ZM20.4906 17.8832C20.0348 18.028 20.1307 19.0535 20.1879 19.1615C20.5638 19.8325 20.8631 17.7737 20.4906 17.8832ZM28.6781 17.2894C28.3327 17.9977 28.1933 18.6167 28.4877 19.1136C28.7452 18.291 30.7603 19.318 29.9799 18.0414C29.3593 18.9268 29.7156 17.2079 28.6781 17.2894ZM47.0004 17.1986C46.1834 15.7651 44.7534 18.1158 45.3031 18.6429C45.6959 17.3173 46.4561 17.8105 47.0004 17.1986ZM23.9134 16.473C23.0848 16.7118 22.6135 17.874 23.7338 18.2943C24.305 17.5254 24.4456 16.8892 23.9134 16.473ZM25.766 17.0433C26.0863 17.2283 26.4202 17.4209 26.7435 17.6166L27.1644 16.8881C26.7536 16.6235 26.9787 16.1544 26.3871 15.9672L25.766 17.0433ZM36.0931 15.7504C35.4402 16.2358 34.3358 16.2431 35.2513 17.2074C35.4872 17.0349 36.8765 16.2663 36.0931 15.7504ZM21.6361 15.1586C21.3057 15.7937 20.9087 16.2458 20.4759 16.4134C21.0337 17.5246 22.2755 15.3732 21.6361 15.1586ZM58.0756 15.3666C57.5816 14.6638 56.0636 15.4669 56.7924 16.0785C57.1459 15.5291 57.7888 16.272 58.0756 15.3666ZM50.934 14.1488C49.9761 13.242 48.8614 14.7951 49.7758 15.4144C50.1249 14.7626 50.4931 14.33 50.934 14.1488ZM62.3431 12.5091C61.7549 13.3862 62.1846 13.934 62.474 14.5189C63.0624 13.6418 62.2554 13.2121 62.3431 12.5091ZM36.9252 7.52282C36.3925 7.17007 35.9148 7.32095 35.5267 7.67809C35.9844 7.92413 36.1442 8.26141 36.3002 8.60583L36.9252 7.52282ZM54.2259 3.9447C53.4253 4.1818 52.8162 5.64635 53.8304 6.14098C54.0307 5.38512 54.5438 4.5278 54.2259 3.9447ZM39.0209 3.89294C38.2909 3.12667 37.9625 4.26187 37.4183 4.40173C38.152 5.16136 38.4737 4.02226 39.0209 3.89294ZM42.7572 1.20055C42.0916 0.480152 40.4741 1.94354 41.0394 2.63317C41.5836 2.0215 42.2822 2.13368 42.7572 1.20055Z" fill="white"/>
</svg>
